<?xml version="1.0" encoding="utf-8" standalone="no"?>
<!DOCTYPE svg PUBLIC "-//W3C//DTD SVG 1.1//EN"
  "http://www.w3.org/Graphics/SVG/1.1/DTD/svg11.dtd">
<svg xmlns:xlink="http://www.w3.org/1999/xlink" width="432pt" height="288pt" viewBox="0 0 432 288" xmlns="http://www.w3.org/2000/svg" version="1.1">
 <metadata>
  <rdf:RDF xmlns:dc="http://purl.org/dc/elements/1.1/" xmlns:cc="http://creativecommons.org/ns#" xmlns:rdf="http://www.w3.org/1999/02/22-rdf-syntax-ns#">
   <cc:Work>
    <dc:type rdf:resource="http://purl.org/dc/dcmitype/StillImage"/>
    <dc:date>2022-11-29T19:38:18.768327</dc:date>
    <dc:format>image/svg+xml</dc:format>
    <dc:creator>
     <cc:Agent>
      <dc:title>Matplotlib v3.5.3, https://matplotlib.org/</dc:title>
     </cc:Agent>
    </dc:creator>
   </cc:Work>
  </rdf:RDF>
 </metadata>
 <defs>
  <style type="text/css">*{stroke-linejoin: round; stroke-linecap: butt}</style>
 </defs>
 <g id="figure_1">
  <g id="patch_1">
   <path d="M 0 288 
L 432 288 
L 432 0 
L 0 0 
L 0 288 
z
" style="fill: none"/>
  </g>
  <g id="axes_1">
   <g id="patch_2">
    <path d="M 54 252 
L 388.8 252 
L 388.8 34.56 
L 54 34.56 
z
" style="fill: #ffffff"/>
   </g>
   <g id="matplotlib.axis_1">
    <g id="xtick_1">
     <g id="line2d_1">
      <defs>
       <path id="m8f046d2d58" d="M 0 0 
L 0 3.5 
" style="stroke: #000000; stroke-width: 0.8"/>
      </defs>
      <g>
       <use xlink:href="#m8f046d2d58" x="69.218182" y="252" style="stroke: #000000; stroke-width: 0.8"/>
      </g>
     </g>
     <g id="text_1">
      <!-- 1.0 -->
      <g transform="translate(61.266619 266.598437)scale(0.1 -0.1)">
       <defs>
        <path id="DejaVuSans-31" d="M 794 531 
L 1825 531 
L 1825 4091 
L 703 3866 
L 703 4441 
L 1819 4666 
L 2450 4666 
L 2450 531 
L 3481 531 
L 3481 0 
L 794 0 
L 794 531 
z
" transform="scale(0.015625)"/>
        <path id="DejaVuSans-2e" d="M 684 794 
L 1344 794 
L 1344 0 
L 684 0 
L 684 794 
z
" transform="scale(0.015625)"/>
        <path id="DejaVuSans-30" d="M 2034 4250 
Q 1547 4250 1301 3770 
Q 1056 3291 1056 2328 
Q 1056 1369 1301 889 
Q 1547 409 2034 409 
Q 2525 409 2770 889 
Q 3016 1369 3016 2328 
Q 3016 3291 2770 3770 
Q 2525 4250 2034 4250 
z
M 2034 4750 
Q 2819 4750 3233 4129 
Q 3647 3509 3647 2328 
Q 3647 1150 3233 529 
Q 2819 -91 2034 -91 
Q 1250 -91 836 529 
Q 422 1150 422 2328 
Q 422 3509 836 4129 
Q 1250 4750 2034 4750 
z
" transform="scale(0.015625)"/>
       </defs>
       <use xlink:href="#DejaVuSans-31"/>
       <use xlink:href="#DejaVuSans-2e" x="63.623047"/>
       <use xlink:href="#DejaVuSans-30" x="95.410156"/>
      </g>
     </g>
    </g>
    <g id="xtick_2">
     <g id="line2d_2">
      <g>
       <use xlink:href="#m8f046d2d58" x="107.263636" y="252" style="stroke: #000000; stroke-width: 0.8"/>
      </g>
     </g>
     <g id="text_2">
      <!-- 1.5 -->
      <g transform="translate(99.312074 266.598437)scale(0.1 -0.1)">
       <defs>
        <path id="DejaVuSans-35" d="M 691 4666 
L 3169 4666 
L 3169 4134 
L 1269 4134 
L 1269 2991 
Q 1406 3038 1543 3061 
Q 1681 3084 1819 3084 
Q 2600 3084 3056 2656 
Q 3513 2228 3513 1497 
Q 3513 744 3044 326 
Q 2575 -91 1722 -91 
Q 1428 -91 1123 -41 
Q 819 9 494 109 
L 494 744 
Q 775 591 1075 516 
Q 1375 441 1709 441 
Q 2250 441 2565 725 
Q 2881 1009 2881 1497 
Q 2881 1984 2565 2268 
Q 2250 2553 1709 2553 
Q 1456 2553 1204 2497 
Q 953 2441 691 2322 
L 691 4666 
z
" transform="scale(0.015625)"/>
       </defs>
       <use xlink:href="#DejaVuSans-31"/>
       <use xlink:href="#DejaVuSans-2e" x="63.623047"/>
       <use xlink:href="#DejaVuSans-35" x="95.410156"/>
      </g>
     </g>
    </g>
    <g id="xtick_3">
     <g id="line2d_3">
      <g>
       <use xlink:href="#m8f046d2d58" x="145.309091" y="252" style="stroke: #000000; stroke-width: 0.8"/>
      </g>
     </g>
     <g id="text_3">
      <!-- 2.0 -->
      <g transform="translate(137.357528 266.598437)scale(0.1 -0.1)">
       <defs>
        <path id="DejaVuSans-32" d="M 1228 531 
L 3431 531 
L 3431 0 
L 469 0 
L 469 531 
Q 828 903 1448 1529 
Q 2069 2156 2228 2338 
Q 2531 2678 2651 2914 
Q 2772 3150 2772 3378 
Q 2772 3750 2511 3984 
Q 2250 4219 1831 4219 
Q 1534 4219 1204 4116 
Q 875 4013 500 3803 
L 500 4441 
Q 881 4594 1212 4672 
Q 1544 4750 1819 4750 
Q 2544 4750 2975 4387 
Q 3406 4025 3406 3419 
Q 3406 3131 3298 2873 
Q 3191 2616 2906 2266 
Q 2828 2175 2409 1742 
Q 1991 1309 1228 531 
z
" transform="scale(0.015625)"/>
       </defs>
       <use xlink:href="#DejaVuSans-32"/>
       <use xlink:href="#DejaVuSans-2e" x="63.623047"/>
       <use xlink:href="#DejaVuSans-30" x="95.410156"/>
      </g>
     </g>
    </g>
    <g id="xtick_4">
     <g id="line2d_4">
      <g>
       <use xlink:href="#m8f046d2d58" x="183.354545" y="252" style="stroke: #000000; stroke-width: 0.8"/>
      </g>
     </g>
     <g id="text_4">
      <!-- 2.5 -->
      <g transform="translate(175.402983 266.598437)scale(0.1 -0.1)">
       <use xlink:href="#DejaVuSans-32"/>
       <use xlink:href="#DejaVuSans-2e" x="63.623047"/>
       <use xlink:href="#DejaVuSans-35" x="95.410156"/>
      </g>
     </g>
    </g>
    <g id="xtick_5">
     <g id="line2d_5">
      <g>
       <use xlink:href="#m8f046d2d58" x="221.4" y="252" style="stroke: #000000; stroke-width: 0.8"/>
      </g>
     </g>
     <g id="text_5">
      <!-- 3.0 -->
      <g transform="translate(213.448438 266.598437)scale(0.1 -0.1)">
       <defs>
        <path id="DejaVuSans-33" d="M 2597 2516 
Q 3050 2419 3304 2112 
Q 3559 1806 3559 1356 
Q 3559 666 3084 287 
Q 2609 -91 1734 -91 
Q 1441 -91 1130 -33 
Q 819 25 488 141 
L 488 750 
Q 750 597 1062 519 
Q 1375 441 1716 441 
Q 2309 441 2620 675 
Q 2931 909 2931 1356 
Q 2931 1769 2642 2001 
Q 2353 2234 1838 2234 
L 1294 2234 
L 1294 2753 
L 1863 2753 
Q 2328 2753 2575 2939 
Q 2822 3125 2822 3475 
Q 2822 3834 2567 4026 
Q 2313 4219 1838 4219 
Q 1578 4219 1281 4162 
Q 984 4106 628 3988 
L 628 4550 
Q 988 4650 1302 4700 
Q 1616 4750 1894 4750 
Q 2613 4750 3031 4423 
Q 3450 4097 3450 3541 
Q 3450 3153 3228 2886 
Q 3006 2619 2597 2516 
z
" transform="scale(0.015625)"/>
       </defs>
       <use xlink:href="#DejaVuSans-33"/>
       <use xlink:href="#DejaVuSans-2e" x="63.623047"/>
       <use xlink:href="#DejaVuSans-30" x="95.410156"/>
      </g>
     </g>
    </g>
    <g id="xtick_6">
     <g id="line2d_6">
      <g>
       <use xlink:href="#m8f046d2d58" x="259.445455" y="252" style="stroke: #000000; stroke-width: 0.8"/>
      </g>
     </g>
     <g id="text_6">
      <!-- 3.5 -->
      <g transform="translate(251.493892 266.598437)scale(0.1 -0.1)">
       <use xlink:href="#DejaVuSans-33"/>
       <use xlink:href="#DejaVuSans-2e" x="63.623047"/>
       <use xlink:href="#DejaVuSans-35" x="95.410156"/>
      </g>
     </g>
    </g>
    <g id="xtick_7">
     <g id="line2d_7">
      <g>
       <use xlink:href="#m8f046d2d58" x="297.490909" y="252" style="stroke: #000000; stroke-width: 0.8"/>
      </g>
     </g>
     <g id="text_7">
      <!-- 4.0 -->
      <g transform="translate(289.539347 266.598437)scale(0.1 -0.1)">
       <defs>
        <path id="DejaVuSans-34" d="M 2419 4116 
L 825 1625 
L 2419 1625 
L 2419 4116 
z
M 2253 4666 
L 3047 4666 
L 3047 1625 
L 3713 1625 
L 3713 1100 
L 3047 1100 
L 3047 0 
L 2419 0 
L 2419 1100 
L 313 1100 
L 313 1709 
L 2253 4666 
z
" transform="scale(0.015625)"/>
       </defs>
       <use xlink:href="#DejaVuSans-34"/>
       <use xlink:href="#DejaVuSans-2e" x="63.623047"/>
       <use xlink:href="#DejaVuSans-30" x="95.410156"/>
      </g>
     </g>
    </g>
    <g id="xtick_8">
     <g id="line2d_8">
      <g>
       <use xlink:href="#m8f046d2d58" x="335.536364" y="252" style="stroke: #000000; stroke-width: 0.8"/>
      </g>
     </g>
     <g id="text_8">
      <!-- 4.5 -->
      <g transform="translate(327.584801 266.598437)scale(0.1 -0.1)">
       <use xlink:href="#DejaVuSans-34"/>
       <use xlink:href="#DejaVuSans-2e" x="63.623047"/>
       <use xlink:href="#DejaVuSans-35" x="95.410156"/>
      </g>
     </g>
    </g>
    <g id="xtick_9">
     <g id="line2d_9">
      <g>
       <use xlink:href="#m8f046d2d58" x="373.581818" y="252" style="stroke: #000000; stroke-width: 0.8"/>
      </g>
     </g>
     <g id="text_9">
      <!-- 5.0 -->
      <g transform="translate(365.630256 266.598437)scale(0.1 -0.1)">
       <use xlink:href="#DejaVuSans-35"/>
       <use xlink:href="#DejaVuSans-2e" x="63.623047"/>
       <use xlink:href="#DejaVuSans-30" x="95.410156"/>
      </g>
     </g>
    </g>
    <g id="text_10">
     <!-- x -->
     <g transform="translate(218.440625 280.276563)scale(0.1 -0.1)">
      <defs>
       <path id="DejaVuSans-78" d="M 3513 3500 
L 2247 1797 
L 3578 0 
L 2900 0 
L 1881 1375 
L 863 0 
L 184 0 
L 1544 1831 
L 300 3500 
L 978 3500 
L 1906 2253 
L 2834 3500 
L 3513 3500 
z
" transform="scale(0.015625)"/>
      </defs>
      <use xlink:href="#DejaVuSans-78"/>
     </g>
    </g>
   </g>
   <g id="matplotlib.axis_2">
    <g id="ytick_1">
     <g id="line2d_10">
      <defs>
       <path id="mbdf8b9566b" d="M 0 0 
L -3.5 0 
" style="stroke: #000000; stroke-width: 0.8"/>
      </defs>
      <g>
       <use xlink:href="#mbdf8b9566b" x="54" y="242.116364" style="stroke: #000000; stroke-width: 0.8"/>
      </g>
     </g>
     <g id="text_11">
      <!-- 0 -->
      <g transform="translate(40.6375 245.915582)scale(0.1 -0.1)">
       <use xlink:href="#DejaVuSans-30"/>
      </g>
     </g>
    </g>
    <g id="ytick_2">
     <g id="line2d_11">
      <g>
       <use xlink:href="#mbdf8b9566b" x="54" y="210.488727" style="stroke: #000000; stroke-width: 0.8"/>
      </g>
     </g>
     <g id="text_12">
      <!-- 20 -->
      <g transform="translate(34.275 214.287946)scale(0.1 -0.1)">
       <use xlink:href="#DejaVuSans-32"/>
       <use xlink:href="#DejaVuSans-30" x="63.623047"/>
      </g>
     </g>
    </g>
    <g id="ytick_3">
     <g id="line2d_12">
      <g>
       <use xlink:href="#mbdf8b9566b" x="54" y="178.861091" style="stroke: #000000; stroke-width: 0.8"/>
      </g>
     </g>
     <g id="text_13">
      <!-- 40 -->
      <g transform="translate(34.275 182.66031)scale(0.1 -0.1)">
       <use xlink:href="#DejaVuSans-34"/>
       <use xlink:href="#DejaVuSans-30" x="63.623047"/>
      </g>
     </g>
    </g>
    <g id="ytick_4">
     <g id="line2d_13">
      <g>
       <use xlink:href="#mbdf8b9566b" x="54" y="147.233455" style="stroke: #000000; stroke-width: 0.8"/>
      </g>
     </g>
     <g id="text_14">
      <!-- 60 -->
      <g transform="translate(34.275 151.032673)scale(0.1 -0.1)">
       <defs>
        <path id="DejaVuSans-36" d="M 2113 2584 
Q 1688 2584 1439 2293 
Q 1191 2003 1191 1497 
Q 1191 994 1439 701 
Q 1688 409 2113 409 
Q 2538 409 2786 701 
Q 3034 994 3034 1497 
Q 3034 2003 2786 2293 
Q 2538 2584 2113 2584 
z
M 3366 4563 
L 3366 3988 
Q 3128 4100 2886 4159 
Q 2644 4219 2406 4219 
Q 1781 4219 1451 3797 
Q 1122 3375 1075 2522 
Q 1259 2794 1537 2939 
Q 1816 3084 2150 3084 
Q 2853 3084 3261 2657 
Q 3669 2231 3669 1497 
Q 3669 778 3244 343 
Q 2819 -91 2113 -91 
Q 1303 -91 875 529 
Q 447 1150 447 2328 
Q 447 3434 972 4092 
Q 1497 4750 2381 4750 
Q 2619 4750 2861 4703 
Q 3103 4656 3366 4563 
z
" transform="scale(0.015625)"/>
       </defs>
       <use xlink:href="#DejaVuSans-36"/>
       <use xlink:href="#DejaVuSans-30" x="63.623047"/>
      </g>
     </g>
    </g>
    <g id="ytick_5">
     <g id="line2d_14">
      <g>
       <use xlink:href="#mbdf8b9566b" x="54" y="115.605818" style="stroke: #000000; stroke-width: 0.8"/>
      </g>
     </g>
     <g id="text_15">
      <!-- 80 -->
      <g transform="translate(34.275 119.405037)scale(0.1 -0.1)">
       <defs>
        <path id="DejaVuSans-38" d="M 2034 2216 
Q 1584 2216 1326 1975 
Q 1069 1734 1069 1313 
Q 1069 891 1326 650 
Q 1584 409 2034 409 
Q 2484 409 2743 651 
Q 3003 894 3003 1313 
Q 3003 1734 2745 1975 
Q 2488 2216 2034 2216 
z
M 1403 2484 
Q 997 2584 770 2862 
Q 544 3141 544 3541 
Q 544 4100 942 4425 
Q 1341 4750 2034 4750 
Q 2731 4750 3128 4425 
Q 3525 4100 3525 3541 
Q 3525 3141 3298 2862 
Q 3072 2584 2669 2484 
Q 3125 2378 3379 2068 
Q 3634 1759 3634 1313 
Q 3634 634 3220 271 
Q 2806 -91 2034 -91 
Q 1263 -91 848 271 
Q 434 634 434 1313 
Q 434 1759 690 2068 
Q 947 2378 1403 2484 
z
M 1172 3481 
Q 1172 3119 1398 2916 
Q 1625 2713 2034 2713 
Q 2441 2713 2670 2916 
Q 2900 3119 2900 3481 
Q 2900 3844 2670 4047 
Q 2441 4250 2034 4250 
Q 1625 4250 1398 4047 
Q 1172 3844 1172 3481 
z
" transform="scale(0.015625)"/>
       </defs>
       <use xlink:href="#DejaVuSans-38"/>
       <use xlink:href="#DejaVuSans-30" x="63.623047"/>
      </g>
     </g>
    </g>
    <g id="ytick_6">
     <g id="line2d_15">
      <g>
       <use xlink:href="#mbdf8b9566b" x="54" y="83.978182" style="stroke: #000000; stroke-width: 0.8"/>
      </g>
     </g>
     <g id="text_16">
      <!-- 100 -->
      <g transform="translate(27.9125 87.777401)scale(0.1 -0.1)">
       <use xlink:href="#DejaVuSans-31"/>
       <use xlink:href="#DejaVuSans-30" x="63.623047"/>
       <use xlink:href="#DejaVuSans-30" x="127.246094"/>
      </g>
     </g>
    </g>
    <g id="ytick_7">
     <g id="line2d_16">
      <g>
       <use xlink:href="#mbdf8b9566b" x="54" y="52.350545" style="stroke: #000000; stroke-width: 0.8"/>
      </g>
     </g>
     <g id="text_17">
      <!-- 120 -->
      <g transform="translate(27.9125 56.149764)scale(0.1 -0.1)">
       <use xlink:href="#DejaVuSans-31"/>
       <use xlink:href="#DejaVuSans-32" x="63.623047"/>
       <use xlink:href="#DejaVuSans-30" x="127.246094"/>
      </g>
     </g>
    </g>
    <g id="text_18">
     <!-- y -->
     <g transform="translate(21.832812 146.239375)rotate(-90)scale(0.1 -0.1)">
      <defs>
       <path id="DejaVuSans-79" d="M 2059 -325 
Q 1816 -950 1584 -1140 
Q 1353 -1331 966 -1331 
L 506 -1331 
L 506 -850 
L 844 -850 
Q 1081 -850 1212 -737 
Q 1344 -625 1503 -206 
L 1606 56 
L 191 3500 
L 800 3500 
L 1894 763 
L 2988 3500 
L 3597 3500 
L 2059 -325 
z
" transform="scale(0.015625)"/>
      </defs>
      <use xlink:href="#DejaVuSans-79"/>
     </g>
    </g>
   </g>
   <g id="line2d_17">
    <path d="M 69.218182 240.534982 
L 72.292562 240.471088 
L 75.366942 240.407193 
L 78.441322 240.343299 
L 81.515702 240.279405 
L 84.590083 240.215511 
L 87.664463 240.151617 
L 90.738843 240.087722 
L 93.813223 240.023828 
L 96.887603 239.959934 
L 99.961983 239.89604 
L 103.036364 239.832145 
L 106.110744 239.768251 
L 109.185124 239.704357 
L 112.259504 239.640463 
L 115.333884 239.576569 
L 118.408264 239.512674 
L 121.482645 239.44878 
L 124.557025 239.384886 
L 127.631405 239.320992 
L 130.705785 239.257098 
L 133.780165 239.193203 
L 136.854545 239.129309 
L 139.928926 239.065415 
L 143.003306 239.001521 
L 146.077686 238.937626 
L 149.152066 238.873732 
L 152.226446 238.809838 
L 155.300826 238.745944 
L 158.375207 238.68205 
L 161.449587 238.618155 
L 164.523967 238.554261 
L 167.598347 238.490367 
L 170.672727 238.426473 
L 173.747107 238.362579 
L 176.821488 238.298684 
L 179.895868 238.23479 
L 182.970248 238.170896 
L 186.044628 238.107002 
L 189.119008 238.043107 
L 192.193388 237.979213 
L 195.267769 237.915319 
L 198.342149 237.851425 
L 201.416529 237.787531 
L 204.490909 237.723636 
L 207.565289 237.659742 
L 210.639669 237.595848 
L 213.71405 237.531954 
L 216.78843 237.46806 
L 219.86281 237.404165 
L 222.93719 237.340271 
L 226.01157 237.276377 
L 229.08595 237.212483 
L 232.160331 237.148588 
L 235.234711 237.084694 
L 238.309091 237.0208 
L 241.383471 236.956906 
L 244.457851 236.893012 
L 247.532231 236.829117 
L 250.606612 236.765223 
L 253.680992 236.701329 
L 256.755372 236.637435 
L 259.829752 236.57354 
L 262.904132 236.509646 
L 265.978512 236.445752 
L 269.052893 236.381858 
L 272.127273 236.317964 
L 275.201653 236.254069 
L 278.276033 236.190175 
L 281.350413 236.126281 
L 284.424793 236.062387 
L 287.499174 235.998493 
L 290.573554 235.934598 
L 293.647934 235.870704 
L 296.722314 235.80681 
L 299.796694 235.742916 
L 302.871074 235.679021 
L 305.945455 235.615127 
L 309.019835 235.551233 
L 312.094215 235.487339 
L 315.168595 235.423445 
L 318.242975 235.35955 
L 321.317355 235.295656 
L 324.391736 235.231762 
L 327.466116 235.167868 
L 330.540496 235.103974 
L 333.614876 235.040079 
L 336.689256 234.976185 
L 339.763636 234.912291 
L 342.838017 234.848397 
L 345.912397 234.784502 
L 348.986777 234.720608 
L 352.061157 234.656714 
L 355.135537 234.59282 
L 358.209917 234.528926 
L 361.284298 234.465031 
L 364.358678 234.401137 
L 367.433058 234.337243 
L 370.507438 234.273349 
L 373.581818 234.209455 
" clip-path="url(#p2c6425c1bc)" style="fill: none; stroke: #1f77b4; stroke-width: 1.5; stroke-linecap: square"/>
   </g>
   <g id="line2d_18">
    <path d="M 69.218182 242.116364 
L 72.292562 242.051196 
L 75.366942 241.983546 
L 78.441322 241.913507 
L 81.515702 241.841165 
L 84.590083 241.7666 
L 87.664463 241.689887 
L 90.738843 241.611096 
L 93.813223 241.530292 
L 96.887603 241.447536 
L 99.961983 241.362888 
L 103.036364 241.2764 
L 106.110744 241.188125 
L 109.185124 241.098111 
L 112.259504 241.006404 
L 115.333884 240.913048 
L 118.408264 240.818085 
L 121.482645 240.721554 
L 124.557025 240.623492 
L 127.631405 240.523935 
L 130.705785 240.422918 
L 133.780165 240.320472 
L 136.854545 240.21663 
L 139.928926 240.111422 
L 143.003306 240.004875 
L 146.077686 239.897017 
L 149.152066 239.787875 
L 152.226446 239.677474 
L 155.300826 239.565838 
L 158.375207 239.452991 
L 161.449587 239.338955 
L 164.523967 239.223751 
L 167.598347 239.107402 
L 170.672727 238.989927 
L 173.747107 238.871345 
L 176.821488 238.751676 
L 179.895868 238.630937 
L 182.970248 238.509147 
L 186.044628 238.386322 
L 189.119008 238.262478 
L 192.193388 238.137632 
L 195.267769 238.011799 
L 198.342149 237.884995 
L 201.416529 237.757233 
L 204.490909 237.628528 
L 207.565289 237.498894 
L 210.639669 237.368344 
L 213.71405 237.23689 
L 216.78843 237.104546 
L 219.86281 236.971324 
L 222.93719 236.837235 
L 226.01157 236.702292 
L 229.08595 236.566505 
L 232.160331 236.429885 
L 235.234711 236.292444 
L 238.309091 236.154191 
L 241.383471 236.015137 
L 244.457851 235.875292 
L 247.532231 235.734665 
L 250.606612 235.593266 
L 253.680992 235.451104 
L 256.755372 235.308188 
L 259.829752 235.164528 
L 262.904132 235.02013 
L 265.978512 234.875004 
L 269.052893 234.729159 
L 272.127273 234.582601 
L 275.201653 234.43534 
L 278.276033 234.287382 
L 281.350413 234.138735 
L 284.424793 233.989406 
L 287.499174 233.839403 
L 290.573554 233.688733 
L 293.647934 233.537403 
L 296.722314 233.385418 
L 299.796694 233.232787 
L 302.871074 233.079515 
L 305.945455 232.925609 
L 309.019835 232.771075 
L 312.094215 232.615919 
L 315.168595 232.460148 
L 318.242975 232.303766 
L 321.317355 232.14678 
L 324.391736 231.989196 
L 327.466116 231.831018 
L 330.540496 231.672253 
L 333.614876 231.512906 
L 336.689256 231.352982 
L 339.763636 231.192486 
L 342.838017 231.031423 
L 345.912397 230.869799 
L 348.986777 230.707618 
L 352.061157 230.544885 
L 355.135537 230.381605 
L 358.209917 230.217782 
L 361.284298 230.053421 
L 364.358678 229.888526 
L 367.433058 229.723102 
L 370.507438 229.557154 
L 373.581818 229.390684 
" clip-path="url(#p2c6425c1bc)" style="fill: none; stroke: #00ffff; stroke-width: 1.5; stroke-linecap: square"/>
   </g>
   <g id="line2d_19">
    <path d="M 69.218182 240.534982 
L 72.292562 240.503351 
L 75.366942 240.472329 
L 78.441322 240.441881 
L 81.515702 240.411977 
L 84.590083 240.382589 
L 87.664463 240.353691 
L 90.738843 240.325259 
L 93.813223 240.297271 
L 96.887603 240.269708 
L 99.961983 240.242549 
L 103.036364 240.215779 
L 106.110744 240.189381 
L 109.185124 240.163339 
L 112.259504 240.137641 
L 115.333884 240.112271 
L 118.408264 240.087219 
L 121.482645 240.062473 
L 124.557025 240.038021 
L 127.631405 240.013853 
L 130.705785 239.98996 
L 133.780165 239.966333 
L 136.854545 239.942962 
L 139.928926 239.91984 
L 143.003306 239.896959 
L 146.077686 239.874312 
L 149.152066 239.851891 
L 152.226446 239.829689 
L 155.300826 239.807702 
L 158.375207 239.785921 
L 161.449587 239.764343 
L 164.523967 239.74296 
L 167.598347 239.721769 
L 170.672727 239.700763 
L 173.747107 239.679938 
L 176.821488 239.65929 
L 179.895868 239.638814 
L 182.970248 239.618506 
L 186.044628 239.598362 
L 189.119008 239.578378 
L 192.193388 239.558549 
L 195.267769 239.538873 
L 198.342149 239.519347 
L 201.416529 239.499966 
L 204.490909 239.480727 
L 207.565289 239.461628 
L 210.639669 239.442666 
L 213.71405 239.423836 
L 216.78843 239.405138 
L 219.86281 239.386568 
L 222.93719 239.368123 
L 226.01157 239.349801 
L 229.08595 239.3316 
L 232.160331 239.313517 
L 235.234711 239.29555 
L 238.309091 239.277696 
L 241.383471 239.259955 
L 244.457851 239.242322 
L 247.532231 239.224797 
L 250.606612 239.207378 
L 253.680992 239.190063 
L 256.755372 239.172849 
L 259.829752 239.155735 
L 262.904132 239.13872 
L 265.978512 239.121802 
L 269.052893 239.104978 
L 272.127273 239.088248 
L 275.201653 239.07161 
L 278.276033 239.055062 
L 281.350413 239.038603 
L 284.424793 239.022232 
L 287.499174 239.005947 
L 290.573554 238.989747 
L 293.647934 238.97363 
L 296.722314 238.957596 
L 299.796694 238.941642 
L 302.871074 238.925769 
L 305.945455 238.909974 
L 309.019835 238.894256 
L 312.094215 238.878615 
L 315.168595 238.863048 
L 318.242975 238.847556 
L 321.317355 238.832137 
L 324.391736 238.81679 
L 327.466116 238.801514 
L 330.540496 238.786309 
L 333.614876 238.771172 
L 336.689256 238.756103 
L 339.763636 238.741102 
L 342.838017 238.726167 
L 345.912397 238.711298 
L 348.986777 238.696493 
L 352.061157 238.681752 
L 355.135537 238.667075 
L 358.209917 238.652459 
L 361.284298 238.637905 
L 364.358678 238.623411 
L 367.433058 238.608977 
L 370.507438 238.594603 
L 373.581818 238.580286 
" clip-path="url(#p2c6425c1bc)" style="fill: none; stroke: #ff7f0e; stroke-width: 1.5; stroke-linecap: square"/>
   </g>
   <g id="line2d_20">
    <path d="M 69.218182 240.534982 
L 72.292562 240.404612 
L 75.366942 240.269079 
L 78.441322 240.128382 
L 81.515702 239.982523 
L 84.590083 239.8315 
L 87.664463 239.675314 
L 90.738843 239.513965 
L 93.813223 239.347453 
L 96.887603 239.175778 
L 99.961983 238.998939 
L 103.036364 238.816937 
L 106.110744 238.629773 
L 109.185124 238.437444 
L 112.259504 238.239953 
L 115.333884 238.037299 
L 118.408264 237.829481 
L 121.482645 237.616501 
L 124.557025 237.398357 
L 127.631405 237.17505 
L 130.705785 236.946579 
L 133.780165 236.712946 
L 136.854545 236.474149 
L 139.928926 236.23019 
L 143.003306 235.981067 
L 146.077686 235.726781 
L 149.152066 235.467332 
L 152.226446 235.202719 
L 155.300826 234.932944 
L 158.375207 234.658005 
L 161.449587 234.377903 
L 164.523967 234.092638 
L 167.598347 233.80221 
L 170.672727 233.506618 
L 173.747107 233.205864 
L 176.821488 232.899946 
L 179.895868 232.588865 
L 182.970248 232.272621 
L 186.044628 231.951214 
L 189.119008 231.624643 
L 192.193388 231.29291 
L 195.267769 230.956013 
L 198.342149 230.613953 
L 201.416529 230.26673 
L 204.490909 229.914343 
L 207.565289 229.556794 
L 210.639669 229.194081 
L 213.71405 228.826206 
L 216.78843 228.453167 
L 219.86281 228.074965 
L 222.93719 227.691599 
L 226.01157 227.303071 
L 229.08595 226.909379 
L 232.160331 226.510524 
L 235.234711 226.106506 
L 238.309091 225.697325 
L 241.383471 225.282981 
L 244.457851 224.863473 
L 247.532231 224.438803 
L 250.606612 224.008969 
L 253.680992 223.573972 
L 256.755372 223.133812 
L 259.829752 222.688489 
L 262.904132 222.238002 
L 265.978512 221.782352 
L 269.052893 221.32154 
L 272.127273 220.855564 
L 275.201653 220.384424 
L 278.276033 219.908122 
L 281.350413 219.426657 
L 284.424793 218.940028 
L 287.499174 218.448236 
L 290.573554 217.951281 
L 293.647934 217.449163 
L 296.722314 216.941882 
L 299.796694 216.429437 
L 302.871074 215.911829 
L 305.945455 215.389059 
L 309.019835 214.861125 
L 312.094215 214.328027 
L 315.168595 213.789767 
L 318.242975 213.246344 
L 321.317355 212.697757 
L 324.391736 212.144007 
L 327.466116 211.585094 
L 330.540496 211.021018 
L 333.614876 210.451778 
L 336.689256 209.877376 
L 339.763636 209.29781 
L 342.838017 208.713081 
L 345.912397 208.123189 
L 348.986777 207.528134 
L 352.061157 206.927916 
L 355.135537 206.322534 
L 358.209917 205.711989 
L 361.284298 205.096281 
L 364.358678 204.47541 
L 367.433058 203.849376 
L 370.507438 203.218179 
L 373.581818 202.581818 
" clip-path="url(#p2c6425c1bc)" style="fill: none; stroke: #2ca02c; stroke-width: 1.5; stroke-linecap: square"/>
   </g>
   <g id="line2d_21">
    <path d="M 69.218182 240.534982 
L 72.292562 240.33545 
L 75.366942 240.119803 
L 78.441322 239.887415 
L 81.515702 239.63766 
L 84.590083 239.369911 
L 87.664463 239.083545 
L 90.738843 238.777933 
L 93.813223 238.452452 
L 96.887603 238.106474 
L 99.961983 237.739374 
L 103.036364 237.350526 
L 106.110744 236.939304 
L 109.185124 236.505083 
L 112.259504 236.047236 
L 115.333884 235.565138 
L 118.408264 235.058163 
L 121.482645 234.525686 
L 124.557025 233.967079 
L 127.631405 233.381718 
L 130.705785 232.768976 
L 133.780165 232.128228 
L 136.854545 231.458848 
L 139.928926 230.76021 
L 143.003306 230.031688 
L 146.077686 229.272657 
L 149.152066 228.48249 
L 152.226446 227.660562 
L 155.300826 226.806246 
L 158.375207 225.918918 
L 161.449587 224.997951 
L 164.523967 224.042719 
L 167.598347 223.052596 
L 170.672727 222.026958 
L 173.747107 220.965177 
L 176.821488 219.866628 
L 179.895868 218.730685 
L 182.970248 217.556722 
L 186.044628 216.344114 
L 189.119008 215.092235 
L 192.193388 213.800458 
L 195.267769 212.468159 
L 198.342149 211.09471 
L 201.416529 209.679487 
L 204.490909 208.221863 
L 207.565289 206.721213 
L 210.639669 205.17691 
L 213.71405 203.58833 
L 216.78843 201.954845 
L 219.86281 200.275831 
L 222.93719 198.550661 
L 226.01157 196.77871 
L 229.08595 194.959351 
L 232.160331 193.091959 
L 235.234711 191.175909 
L 238.309091 189.210573 
L 241.383471 187.195327 
L 244.457851 185.129545 
L 247.532231 183.0126 
L 250.606612 180.843867 
L 253.680992 178.62272 
L 256.755372 176.348533 
L 259.829752 174.02068 
L 262.904132 171.638536 
L 265.978512 169.201475 
L 269.052893 166.708871 
L 272.127273 164.160097 
L 275.201653 161.554529 
L 278.276033 158.891539 
L 281.350413 156.170504 
L 284.424793 153.390796 
L 287.499174 150.55179 
L 290.573554 147.652859 
L 293.647934 144.693379 
L 296.722314 141.672723 
L 299.796694 138.590266 
L 302.871074 135.445381 
L 305.945455 132.237443 
L 309.019835 128.965826 
L 312.094215 125.629904 
L 315.168595 122.229051 
L 318.242975 118.762641 
L 321.317355 115.230049 
L 324.391736 111.630649 
L 327.466116 107.963815 
L 330.540496 104.228921 
L 333.614876 100.425341 
L 336.689256 96.552449 
L 339.763636 92.60962 
L 342.838017 88.596227 
L 345.912397 84.511646 
L 348.986777 80.355249 
L 352.061157 76.126412 
L 355.135537 71.824508 
L 358.209917 67.448911 
L 361.284298 62.998996 
L 364.358678 58.474137 
L 367.433058 53.873708 
L 370.507438 49.197083 
L 373.581818 44.443636 
" clip-path="url(#p2c6425c1bc)" style="fill: none; stroke: #d62728; stroke-width: 1.5; stroke-linecap: square"/>
   </g>
   <g id="patch_3">
    <path d="M 54 252 
L 54 34.56 
" style="fill: none; stroke: #000000; stroke-width: 0.8; stroke-linejoin: miter; stroke-linecap: square"/>
   </g>
   <g id="patch_4">
    <path d="M 388.8 252 
L 388.8 34.56 
" style="fill: none; stroke: #000000; stroke-width: 0.8; stroke-linejoin: miter; stroke-linecap: square"/>
   </g>
   <g id="patch_5">
    <path d="M 54 252 
L 388.8 252 
" style="fill: none; stroke: #000000; stroke-width: 0.8; stroke-linejoin: miter; stroke-linecap: square"/>
   </g>
   <g id="patch_6">
    <path d="M 54 34.56 
L 388.8 34.56 
" style="fill: none; stroke: #000000; stroke-width: 0.8; stroke-linejoin: miter; stroke-linecap: square"/>
   </g>
   <g id="legend_1">
    <g id="patch_7">
     <path d="M 61 120.238125 
L 157.5 120.238125 
Q 159.5 120.238125 159.5 118.238125 
L 159.5 41.56 
Q 159.5 39.56 157.5 39.56 
L 61 39.56 
Q 59 39.56 59 41.56 
L 59 118.238125 
Q 59 120.238125 61 120.238125 
z
" style="fill: #ffffff; opacity: 0.8; stroke: #cccccc; stroke-linejoin: miter"/>
    </g>
    <g id="line2d_22">
     <path d="M 63 47.658438 
L 73 47.658438 
L 83 47.658438 
" style="fill: none; stroke: #1f77b4; stroke-width: 1.5; stroke-linecap: square"/>
    </g>
    <g id="text_19">
     <!-- y = x -->
     <g transform="translate(91 51.158438)scale(0.1 -0.1)">
      <defs>
       <path id="DejaVuSans-20" transform="scale(0.015625)"/>
       <path id="DejaVuSans-3d" d="M 678 2906 
L 4684 2906 
L 4684 2381 
L 678 2381 
L 678 2906 
z
M 678 1631 
L 4684 1631 
L 4684 1100 
L 678 1100 
L 678 1631 
z
" transform="scale(0.015625)"/>
      </defs>
      <use xlink:href="#DejaVuSans-79"/>
      <use xlink:href="#DejaVuSans-20" x="59.179688"/>
      <use xlink:href="#DejaVuSans-3d" x="90.966797"/>
      <use xlink:href="#DejaVuSans-20" x="174.755859"/>
      <use xlink:href="#DejaVuSans-78" x="206.542969"/>
     </g>
    </g>
    <g id="line2d_23">
     <path d="M 63 62.338125 
L 73 62.338125 
L 83 62.338125 
" style="fill: none; stroke: #00ffff; stroke-width: 1.5; stroke-linecap: square"/>
    </g>
    <g id="text_20">
     <!-- y = $x*log(x)$ -->
     <g transform="translate(91 65.838125)scale(0.1 -0.1)">
      <defs>
       <path id="DejaVuSans-Oblique-78" d="M 3841 3500 
L 2234 1784 
L 3219 0 
L 2559 0 
L 1819 1388 
L 531 0 
L -166 0 
L 1556 1844 
L 641 3500 
L 1300 3500 
L 1972 2234 
L 3144 3500 
L 3841 3500 
z
" transform="scale(0.015625)"/>
       <path id="DejaVuSans-2a" d="M 3009 3897 
L 1888 3291 
L 3009 2681 
L 2828 2375 
L 1778 3009 
L 1778 1831 
L 1422 1831 
L 1422 3009 
L 372 2375 
L 191 2681 
L 1313 3291 
L 191 3897 
L 372 4206 
L 1422 3572 
L 1422 4750 
L 1778 4750 
L 1778 3572 
L 2828 4206 
L 3009 3897 
z
" transform="scale(0.015625)"/>
       <path id="DejaVuSans-Oblique-6c" d="M 1172 4863 
L 1747 4863 
L 800 0 
L 225 0 
L 1172 4863 
z
" transform="scale(0.015625)"/>
       <path id="DejaVuSans-Oblique-6f" d="M 1625 -91 
Q 1009 -91 651 289 
Q 294 669 294 1325 
Q 294 1706 417 2101 
Q 541 2497 738 2766 
Q 1047 3184 1428 3384 
Q 1809 3584 2291 3584 
Q 2888 3584 3255 3212 
Q 3622 2841 3622 2241 
Q 3622 1825 3500 1412 
Q 3378 1000 3181 728 
Q 2875 309 2494 109 
Q 2113 -91 1625 -91 
z
M 891 1344 
Q 891 869 1089 633 
Q 1288 397 1691 397 
Q 2269 397 2648 901 
Q 3028 1406 3028 2181 
Q 3028 2634 2825 2865 
Q 2622 3097 2228 3097 
Q 1903 3097 1650 2945 
Q 1397 2794 1197 2484 
Q 1050 2253 970 1956 
Q 891 1659 891 1344 
z
" transform="scale(0.015625)"/>
       <path id="DejaVuSans-Oblique-67" d="M 3816 3500 
L 3219 434 
Q 3047 -456 2561 -893 
Q 2075 -1331 1253 -1331 
Q 950 -1331 690 -1286 
Q 431 -1241 206 -1147 
L 313 -588 
Q 525 -725 762 -790 
Q 1000 -856 1269 -856 
Q 1816 -856 2167 -557 
Q 2519 -259 2631 300 
L 2681 563 
Q 2441 288 2122 144 
Q 1803 0 1434 0 
Q 903 0 598 351 
Q 294 703 294 1319 
Q 294 1803 478 2267 
Q 663 2731 997 3091 
Q 1219 3328 1514 3456 
Q 1809 3584 2131 3584 
Q 2484 3584 2746 3420 
Q 3009 3256 3138 2956 
L 3238 3500 
L 3816 3500 
z
M 2950 2216 
Q 2950 2641 2750 2872 
Q 2550 3103 2181 3103 
Q 1953 3103 1747 3012 
Q 1541 2922 1394 2759 
Q 1156 2491 1023 2127 
Q 891 1763 891 1375 
Q 891 944 1092 712 
Q 1294 481 1672 481 
Q 2219 481 2584 976 
Q 2950 1472 2950 2216 
z
" transform="scale(0.015625)"/>
       <path id="DejaVuSans-28" d="M 1984 4856 
Q 1566 4138 1362 3434 
Q 1159 2731 1159 2009 
Q 1159 1288 1364 580 
Q 1569 -128 1984 -844 
L 1484 -844 
Q 1016 -109 783 600 
Q 550 1309 550 2009 
Q 550 2706 781 3412 
Q 1013 4119 1484 4856 
L 1984 4856 
z
" transform="scale(0.015625)"/>
       <path id="DejaVuSans-29" d="M 513 4856 
L 1013 4856 
Q 1481 4119 1714 3412 
Q 1947 2706 1947 2009 
Q 1947 1309 1714 600 
Q 1481 -109 1013 -844 
L 513 -844 
Q 928 -128 1133 580 
Q 1338 1288 1338 2009 
Q 1338 2731 1133 3434 
Q 928 4138 513 4856 
z
" transform="scale(0.015625)"/>
      </defs>
      <use xlink:href="#DejaVuSans-79" transform="translate(0 0.015625)"/>
      <use xlink:href="#DejaVuSans-20" transform="translate(59.179688 0.015625)"/>
      <use xlink:href="#DejaVuSans-3d" transform="translate(90.966797 0.015625)"/>
      <use xlink:href="#DejaVuSans-20" transform="translate(174.755859 0.015625)"/>
      <use xlink:href="#DejaVuSans-Oblique-78" transform="translate(206.542969 0.015625)"/>
      <use xlink:href="#DejaVuSans-2a" transform="translate(285.205078 0.015625)"/>
      <use xlink:href="#DejaVuSans-Oblique-6c" transform="translate(354.6875 0.015625)"/>
      <use xlink:href="#DejaVuSans-Oblique-6f" transform="translate(382.470703 0.015625)"/>
      <use xlink:href="#DejaVuSans-Oblique-67" transform="translate(443.652344 0.015625)"/>
      <use xlink:href="#DejaVuSans-28" transform="translate(507.128906 0.015625)"/>
      <use xlink:href="#DejaVuSans-Oblique-78" transform="translate(546.142578 0.015625)"/>
      <use xlink:href="#DejaVuSans-29" transform="translate(605.322266 0.015625)"/>
     </g>
    </g>
    <g id="line2d_24">
     <path d="M 63 78.238125 
L 73 78.238125 
L 83 78.238125 
" style="fill: none; stroke: #ff7f0e; stroke-width: 1.5; stroke-linecap: square"/>
    </g>
    <g id="text_21">
     <!-- y = $\sqrt{x}$ -->
     <g transform="translate(91 81.738125)scale(0.1 -0.1)">
      <defs>
       <path id="DejaVuSans-221a" d="M 3488 5191 
L 4078 5191 
L 4078 4891 
L 3719 4891 
L 1863 -128 
L 1656 -128 
L 659 2631 
L 269 2491 
L 191 2741 
L 1075 3047 
L 1875 831 
L 3488 5191 
z
" transform="scale(0.015625)"/>
      </defs>
      <use xlink:href="#DejaVuSans-79" transform="translate(0 0.890625)"/>
      <use xlink:href="#DejaVuSans-20" transform="translate(59.179688 0.890625)"/>
      <use xlink:href="#DejaVuSans-3d" transform="translate(90.966797 0.890625)"/>
      <use xlink:href="#DejaVuSans-20" transform="translate(174.755859 0.890625)"/>
      <use xlink:href="#DejaVuSans-221a" transform="translate(206.542969 0.890625)"/>
      <use xlink:href="#DejaVuSans-Oblique-78" transform="translate(282.763672 1.0625)"/>
      <path d="M 270.263672 75.5 
L 270.263672 81.75 
L 354.443359 81.75 
L 354.443359 75.5 
L 270.263672 75.5 
z
"/>
     </g>
    </g>
    <g id="line2d_25">
     <path d="M 63 94.438125 
L 73 94.438125 
L 83 94.438125 
" style="fill: none; stroke: #2ca02c; stroke-width: 1.5; stroke-linecap: square"/>
    </g>
    <g id="text_22">
     <!-- y = $x^2$ -->
     <g transform="translate(91 97.938125)scale(0.1 -0.1)">
      <use xlink:href="#DejaVuSans-79" transform="translate(0 0.765625)"/>
      <use xlink:href="#DejaVuSans-20" transform="translate(59.179688 0.765625)"/>
      <use xlink:href="#DejaVuSans-3d" transform="translate(90.966797 0.765625)"/>
      <use xlink:href="#DejaVuSans-20" transform="translate(174.755859 0.765625)"/>
      <use xlink:href="#DejaVuSans-Oblique-78" transform="translate(206.542969 0.765625)"/>
      <use xlink:href="#DejaVuSans-32" transform="translate(270.188802 39.046875)scale(0.7)"/>
     </g>
    </g>
    <g id="line2d_26">
     <path d="M 63 110.638125 
L 73 110.638125 
L 83 110.638125 
" style="fill: none; stroke: #d62728; stroke-width: 1.5; stroke-linecap: square"/>
    </g>
    <g id="text_23">
     <!-- y = $x^3$ -->
     <g transform="translate(91 114.138125)scale(0.1 -0.1)">
      <use xlink:href="#DejaVuSans-79" transform="translate(0 0.765625)"/>
      <use xlink:href="#DejaVuSans-20" transform="translate(59.179688 0.765625)"/>
      <use xlink:href="#DejaVuSans-3d" transform="translate(90.966797 0.765625)"/>
      <use xlink:href="#DejaVuSans-20" transform="translate(174.755859 0.765625)"/>
      <use xlink:href="#DejaVuSans-Oblique-78" transform="translate(206.542969 0.765625)"/>
      <use xlink:href="#DejaVuSans-33" transform="translate(270.188802 39.046875)scale(0.7)"/>
     </g>
    </g>
   </g>
  </g>
 </g>
 <defs>
  <clipPath id="p2c6425c1bc">
   <rect x="54" y="34.56" width="334.8" height="217.44"/>
  </clipPath>
 </defs>
</svg>
